<?xml version="1.0" encoding="utf-8"?>
<!-- Generator: Adobe Illustrator 23.0.1, SVG Export Plug-In . SVG Version: 6.00 Build 0)  -->
<svg version="1.1"
	 id="svg2" inkscape:version="0.92.3 (2405546, 2018-03-11)" sodipodi:docname="HeatExchanger.svg" xmlns:cc="http://creativecommons.org/ns#" xmlns:dc="http://purl.org/dc/elements/1.1/" xmlns:inkscape="http://www.inkscape.org/namespaces/inkscape" xmlns:osb="http://www.openswatchbook.org/uri/2009/osb" xmlns:rdf="http://www.w3.org/1999/02/22-rdf-syntax-ns#" xmlns:sodipodi="http://sodipodi.sourceforge.net/DTD/sodipodi-0.dtd" xmlns:svg="http://www.w3.org/2000/svg"
	 xmlns="http://www.w3.org/2000/svg" xmlns:xlink="http://www.w3.org/1999/xlink" x="0px" y="0px" viewBox="0 0 819.2 454"
	 style="enable-background:new 0 0 819.2 1024;" xml:space="preserve">
<style type="text/css">
	a:hover{text-decoration: none;}
	.st0{fill:#FF8080;stroke:#000000;stroke-width:2.6337;stroke-linejoin:round;}
	.st1{fill:#FF8080;stroke:#000000;stroke-width:2.9606;}
	.st2{fill:#FFFFFF;stroke:#000000;stroke-width:2.6628;stroke-linejoin:round;}
	.st3{fill:#3C94FA;stroke:#000000;stroke-width:2.4385;}
	.st4{fill:none;}
	.st5{fill:#FF8080;stroke:#000000;stroke-width:2.6687;stroke-linejoin:round;}
	.st6{fill:#0073F9;fill-opacity:0.7647;stroke:#000000;stroke-width:2.662;stroke-linejoin:round;}
	.st7{fill:#3C94FA;stroke:#000000;stroke-width:2.6622;stroke-linejoin:round;}
	.st9{font-size:54.7578px;}
	.st10{fill-rule:evenodd;clip-rule:evenodd;fill:#3C94FA;}
	.st11{fill-rule:evenodd;clip-rule:evenodd;fill:#FF8080;}
	.st12{font-size:11.6586px;}
	.st13{fill-rule:evenodd;clip-rule:evenodd;fill:#FFFFFF;stroke:#FFFFFF;}
	.st14{opacity:0.847;fill:none;stroke:#0000FF;stroke-width:2.5739;stroke-linecap:round;stroke-dasharray:2.5739,7.7216;enable-background:new    ;}
	.st15{fill:white;font-size:15.5449px;}
	.st16{font-size:13.6018px;}
	.st17{fill:none;stroke:#FFFFFF;stroke-width:2;stroke-miterlimit:10;}
	.st18{fill:#FF8080;stroke:#FF0000;stroke-width:2.574;stroke-linecap:round;enable-background:new    ;}
	.st19{fill:#3F0700;}
	.st20{fill:white;font-size:24px;}
	.st21{fill:#3C94FA;stroke:#0000FF;stroke-width:2.574;stroke-linecap:round;enable-background:new    ;}
	.st22{fill:none;stroke:#FFFFFF;stroke-width:1.6908;stroke-linecap:round;stroke-linejoin:round;stroke-dasharray:1.6908,5.0725;}
	.st23{opacity:0.44;fill:#FFFFFF;stroke:#FFFFFF;stroke-width:1.691;stroke-linecap:round;stroke-linejoin:round;}
	.st24{fill:#FFFFFF;}
	.st26{fill:none;stroke:#FFFFFF;stroke-width:1.691;stroke-linecap:round;stroke-linejoin:round;}
	.st27{font-size:13.8881px;}
</style>
<defs>

	<inkscape:path-effect  effect="spiro" id="path-effect6203" is_visible="true"></inkscape:path-effect>
	<inkscape:path-effect  effect="spiro" id="path-effect4288" is_visible="true"></inkscape:path-effect>
	<inkscape:path-effect  effect="spiro" id="path-effect4472" is_visible="true"></inkscape:path-effect>
	<inkscape:path-effect  effect="spiro" id="path-effect4299" is_visible="true"></inkscape:path-effect>
	<inkscape:path-effect  effect="spiro" id="path-effect4472-7" is_visible="true"></inkscape:path-effect>
	<inkscape:path-effect  effect="spiro" id="path-effect4472-7-9" is_visible="true"></inkscape:path-effect>
	<inkscape:path-effect  effect="spiro" id="path-effect4472-7-9-5" is_visible="true"></inkscape:path-effect>
	<inkscape:path-effect  effect="spiro" id="path-effect4472-77" is_visible="true"></inkscape:path-effect>
	<inkscape:path-effect  effect="spiro" id="path-effect4288-8" is_visible="true"></inkscape:path-effect>
	<inkscape:path-effect  effect="spiro" id="path-effect4288-3" is_visible="true"></inkscape:path-effect>
	<inkscape:path-effect  effect="spiro" id="path-effect4288-8-7" is_visible="true"></inkscape:path-effect>
</defs>
<sodipodi:namedview  bordercolor="#666666" borderopacity="1" fit-margin-bottom="0" fit-margin-left="0" fit-margin-right="0" fit-margin-top="0" gridtolerance="10" guidetolerance="10" id="namedview6" inkscape:current-layer="svg2" inkscape:cx="466.32926" inkscape:cy="289.37694" inkscape:pageopacity="0" inkscape:pageshadow="2" inkscape:window-height="517" inkscape:window-maximized="1" inkscape:window-width="1920" inkscape:window-x="1912" inkscape:window-y="-8" inkscape:zoom="0.61431476" objecttolerance="10" pagecolor="#ffffff" showgrid="false">
	</sodipodi:namedview>
<path id="path6736" inkscape:connector-curvature="0" inkscape:export-xdpi="96" inkscape:export-ydpi="96" class="st0" d="
	M586.3,136c-47.3,0-85.7,37.4-85.7,83.6c0,46.2,38.4,83.6,85.7,83.6c0,0,0,0,0,0c47.3,0,85.7-37.4,85.7-83.6c0,0,0,0,0,0
	C672,173.5,633.7,136,586.3,136z"/>
<ellipse id="path4552" inkscape:export-xdpi="96" inkscape:export-ydpi="96" class="st1" cx="229.3" cy="219.6" rx="86.2" ry="83.5">
</ellipse>
<rect id="rect6794" x="228.8" y="136" inkscape:export-xdpi="96" inkscape:export-ydpi="96" class="st2" width="358.2" height="167.3">
</rect>
<rect id="rect4550" x="228.8" y="136" inkscape:export-xdpi="96" inkscape:export-ydpi="96" class="st3" width="358.2" height="167.3">
</rect>
<path id="path6276" inkscape:connector-curvature="0" inkscape:export-xdpi="96" inkscape:export-ydpi="96" class="st4" d="
	M300.3,301.7l-69.7-0.1v-81.9v-81.9l111.8-0.2c61.5-0.1,141.3-0.2,177.5-0.2l65.8,0v82.3v82.3l-107.8-0.1
	C418.5,301.8,338.6,301.7,300.3,301.7L300.3,301.7z"/>
<rect id="rect7266" x="90.2" y="203.2" inkscape:export-xdpi="96" inkscape:export-ydpi="96" class="st5" width="54.5" height="32.3">
</rect>
<rect id="rect7266-48" x="273.5" y="84.1" inkscape:export-xdpi="96" inkscape:export-ydpi="96" class="st6" width="35.4" height="51.6">
</rect>
<rect id="rect7266-48-9" x="511" y="303.6" inkscape:export-xdpi="96" inkscape:export-ydpi="96" class="st7" width="39" height="56.4">
</rect>
<text id="asset_name" transform="matrix(1 0 0 1 368.8872 234.7461)" class="st8 st9">HX</text>
<rect id="rect7266-8" x="670.6" y="203.3" inkscape:export-xdpi="96" inkscape:export-ydpi="96" class="st5" width="62.9" height="32.2">
</rect>
<rect id="rect8490" x="274.6" y="133.1" class="st10" width="33.3" height="4.5"/>
<rect id="rect8490-0" x="136.5" y="204.5" class="st11" width="13.5" height="29.7"/>
<rect id="rect8490-5" x="512" y="299.9" class="st10" width="37" height="10.4"/>
<rect id="rect8490-5-0" x="668.9" y="204.6" class="st11" width="3.4" height="29.5"/>
<text transform="matrix(1 0 0 1 264.8091 103.4043)" class="st8 st12"> </text>
<path class="st4" d=""/>
<path id="path4487" inkscape:connector-curvature="0" class="st13" d="M290.5,121.7l-4.8-4.8l4.8,16.9l4.8-16.9L290.5,121.7z"/>
<path id="path4286" inkscape:connector-curvature="0" inkscape:original-d="m 373.70716,103.47996 0,55.25088" inkscape:path-effect="#path-effect4288" class="st13" d="
	M290.5,131.4"/>
<path class="st4" d=""/>
<path id="path4487-7" inkscape:connector-curvature="0" class="st13" d="M108.1,218.9l4.8-4.8L96,218.9l16.9,4.8L108.1,218.9z"/>
<path id="path4286-6" inkscape:connector-curvature="0" inkscape:original-d="m 185.36497,271.30794 -58.70406,0" inkscape:path-effect="#path-effect4288-8" sodipodi:nodetypes="cc" class="st13" d="
	M98.4,218.9"/>
<path class="st4" d=""/>
<path id="path4487-4" inkscape:connector-curvature="0" class="st13" d="M529.5,338.8l-4.8-4.8l4.8,16.9l4.8-16.9L529.5,338.8z"/>
<path id="path4286-2" inkscape:connector-curvature="0" inkscape:original-d="m 681.24862,382.73259 0,55.25088" inkscape:path-effect="#path-effect4288-3" class="st13" d="
	M529.5,348.4"/>
<path class="st4" d=""/>
<path id="path4487-7-5" inkscape:connector-curvature="0" class="st13" d="M691.5,218.5l4.8-4.8l-16.9,4.8l16.9,4.8L691.5,218.5z"/>
<path id="path4286-6-2" inkscape:connector-curvature="0" inkscape:original-d="m 935.98143,270.86505 -58.70406,0" inkscape:path-effect="#path-effect4288-8-7" sodipodi:nodetypes="cc" class="st13" d="
	M681.9,218.5"/>
<g id="flowRoot4275" transform="translate(-5.7387697)">
</g>
<g>
	<g>
		<!-- <circle id="path4295-9-1-4" class="st14" cx="532.6" cy="401.4" r="34.3"/> -->
		<!-- st14 class: N/A data -->
		<circle id="path4295-9-1-4" class="st21" cx="532.6" cy="401.4" r="34.3"/>
		<a href="#" id="ShellOutlet">
			<text transform="matrix(1 0 0 1 507.6403 403.9592)" class="st8 st20">92.8</text>
			<text transform="matrix(1 0 0 1 523.6398 422.7033)" class="st8 st15">°F</text>
		</a>
	</g>
	<g>
		<text id="ShellOutlet_title" transform="matrix(1 0 0 1 411.1743 400.6553)" class="st8 st16">Shell Outlet</text>
		<text id="ShellOutlet_id" transform="matrix(1 0 0 1 408.2012 416.3193)" class="st8 st16">(ID: 01A001)</text>
	</g>
</g>
<line class="st17" x1="108.1" y1="218.9" x2="144.7" y2="218.9"/>
<line class="st17" x1="689" y1="218.5" x2="725.6" y2="218.5"/>
<line class="st17" x1="290.9" y1="128.4" x2="290.9" y2="91.8"/>
<line class="st17" x1="529.5" y1="342.1" x2="529.5" y2="305.5"/>
<g>
	<g>
		<text id="TubeOutlet_title" transform="matrix(1 0 0 1 8.937 271.4497)" class="st8 st16">Tube Outlet</text>
		<text id="TubeOutlet_id" transform="matrix(1 0 0 1 6.3271 288.0156)" class="st8 st16">(ID: 01A001)</text>
	</g>
	<g>
		<circle id="path4295-9-1" class="st18" cx="44.1" cy="217.1" r="34.3"/>
		<g>
			<a id="TubeOutlet">
				<text id="TubeOutlet_n" transform="matrix(1 0 0 1 19.9541 218.5259)" class="st19 st8 st20">92.8</text>
			</a>
			<text transform="matrix(1 0 0 1 35.9541 237.27)" class="st8 st15">°F</text>
		</g>
	</g>
</g>
<g>
	<g>
		<text id="TubeInlet_title" transform="matrix(1 0 0 1 745.376 268.0825)" class="st8 st16">Tube Inlet</text>
		<text id="TubeInlet_id" transform="matrix(1 0 0 1 735.7715 282.3076)" class="st8 st16">(ID: 01A001)</text>
	</g>
	<g>

			<ellipse id="path4295-9-1-4-7" transform="matrix(0.1602 -0.9871 0.9871 0.1602 436.5919 945.0707)" class="st18" cx="773.7" cy="216" rx="34.3" ry="34.3"/>
		<g>
			<a id="TubeInlet">
				<text transform="matrix(1 0 0 1 751.0845 218.526)" class="st19 st8 st20">92.8</text>
			</a>
			<text transform="matrix(1 0 0 1 767.0841 237.2702)" class="st8 st15">°F</text>
		</g>
	</g>
</g>
<g>
	<g>
		<text id="ShellInlet_title" transform="matrix(1 0 0 1 345.9185 35.3428)" class="st8 st16">Shell Inlet</text>
		<text id="ShellInlet_id" transform="matrix(1 0 0 1 337.5059 53.3311)" class="st8 st16">(ID: 01A001)</text>
	</g>
	<g>
		<circle id="path4295" class="st21" cx="290.9" cy="43.3" r="34.3"/>
		<g>
			<a id="ShellInlet">
				<text transform="matrix(1 0 0 1 267.6403 43.9592)" class="st8 st20">92.8</text>
			</a>
			<text transform="matrix(1 0 0 1 283.6398 62.7033)" class="st8 st15">°F</text>
		</g>
	</g>
</g>
<g>
	<a id="TubeInlet_flow">
		<rect id="rect9030-1-1" x="594.6" y="207.4" class="st22" width="72.8" height="24.7"/>
		<g>
			<rect id="rect9030-1-1_1_" x="597.5" y="210.4" class="st23" width="67.5" height="19.1"/>
			<text transform="matrix(1 0 0 1 624.3043 226.2827)" class="st24 st25 st20">+</text>
		</g>
	</a>
</g>
<g>
	<a id="ShellOutlet_flow">
		<rect id="rect9030-2" x="492.3" y="269.5" class="st22" width="74.8" height="26.7"/>
		<g>
			<rect id="rect9030-1-1_2_" x="495.7" y="273.3" class="st23" width="67.5" height="19.1"/>
			<text transform="matrix(1 0 0 1 522.5308 289.217)" class="st24 st25 st20">+</text>
		</g>
	</a>
</g>
<g>
	<rect id="rect9030" x="248.7" y="142.8" class="st26" width="87.4" height="26.7"/>
	<a id="ShellInlet_flow">
		<text transform="matrix(1 0 0 1 264.8091 161.6133)" class="st24 st8 st27">9.89 gpm</text>
	</a>
</g>
<g>
	<rect id="rect9030-1-1-7" x="149.4" y="207.4" class="st26" width="72.8" height="24.7"/>
	<a id="TubeOutlet_flow">
		<text transform="matrix(1 0 0 1 158.8292 223.6892)" class="st24 st8 st16">9.89 gpm</text>
	</a>
</g>
</svg>
