<?xml version="1.0" encoding="utf-8"?>
<svg version="1.1"
	 id="svg2" 
	 inkscape:version="0.92.3 (2405546, 2018-03-11)" 
	 xmlns:inkscape="http://www.inkscape.org/namespaces/inkscape" 
	 xmlns:osb="http://www.openswatchbook.org/uri/2009/osb" 
	 xmlns:rdf="http://www.w3.org/1999/02/22-rdf-syntax-ns#" 
	 xmlns:sodipodi="http://sodipodi.sourceforge.net/DTD/sodipodi-0.dtd" 
	 xmlns:svg="http://www.w3.org/2000/svg"
	 xmlns="http://www.w3.org/2000/svg" 
	 xmlns:xlink="http://www.w3.org/1999/xlink" 
	 x="0px" y="0px" viewBox="0 0 820 454"
	 style="enable-background:new 0 0 820 1024;" 
	 xml:space="preserve">

<style type="text/css">
	a:hover{text-decoration: none;}
	.pink{fill:#FF8080;stroke:#fff;stroke-width:0;}
	.title{fill:#3C94FA;stroke:#fff;stroke-width:0;}
	.title-text{font-size:30px;fill:white;}
	.st4{fill:none;}
	.st5{fill:#FF8080;}
	.st6{fill:#0073F9;fill-opacity:0.7647;stroke:#fff;stroke-width:0;}
	.st7{fill:#3C94FA;stroke:#fff;stroke-width:0;}
	.st10{fill-rule:evenodd;clip-rule:evenodd;fill:#3C94FA;}
	.st11{fill-rule:evenodd;clip-rule:evenodd;fill:#FF8080;}
	.st12{font-size:11.6586px;}
	.st13{fill-rule:evenodd;clip-rule:evenodd;fill:#FFFFFF;stroke:#FFFFFF;}
	.st14{opacity:0.847;fill:none;stroke:#0000FF;stroke-width:2.5739;stroke-linecap:round;stroke-dasharray:2.5739,7.7216;enable-background:new    ;}
	.st15{fill:white;font-size:15.5449px;}
	.st16{font-size:13.6018px;}
	.arrow{fill:none;stroke:#FFFFFF;stroke-width:2;stroke-miterlimit:10;}
	.st18{fill:#FF8080;stroke:#fff;stroke-width:2.574;stroke-linecap:round;enable-background:new    ;}
	.st19{fill:#3F0700;}
	.st20{fill:white;font-size:20px;}
	.st21{fill:#3C94FA;stroke:#fff;stroke-width:2.574;stroke-linecap:round;enable-background:new    ;}
	.st22{fill:none;stroke:#FFFFFF;stroke-width:1.6908;stroke-linecap:round;stroke-linejoin:round;stroke-dasharray:1.6908,5.0725;}
	.st23{opacity:0.44;fill:#FFFFFF;stroke:#FFFFFF;stroke-width:1.691;stroke-linecap:round;stroke-linejoin:round;}
	.st24{fill:#FFFFFF;}
	.st26{fill:none;stroke:#FFFFFF;stroke-width:1.691;stroke-linecap:round;stroke-linejoin:round;display:none;}
	.st27{font-size:13.8881px;}
	.hide{display:none;}
</style>

<defs>
	<inkscape:path-effect  effect="spiro" id="path-effect6203" is_visible="true"></inkscape:path-effect>
	<inkscape:path-effect  effect="spiro" id="path-effect4288" is_visible="true"></inkscape:path-effect>
	<inkscape:path-effect  effect="spiro" id="path-effect4472" is_visible="true"></inkscape:path-effect>
	<inkscape:path-effect  effect="spiro" id="path-effect4299" is_visible="true"></inkscape:path-effect>
	<inkscape:path-effect  effect="spiro" id="path-effect4472-7" is_visible="true"></inkscape:path-effect>
	<inkscape:path-effect  effect="spiro" id="path-effect4472-7-9" is_visible="true"></inkscape:path-effect>
	<inkscape:path-effect  effect="spiro" id="path-effect4472-7-9-5" is_visible="true"></inkscape:path-effect>
	<inkscape:path-effect  effect="spiro" id="path-effect4472-77" is_visible="true"></inkscape:path-effect>
	<inkscape:path-effect  effect="spiro" id="path-effect4288-8" is_visible="true"></inkscape:path-effect>
	<inkscape:path-effect  effect="spiro" id="path-effect4288-3" is_visible="true"></inkscape:path-effect>
	<inkscape:path-effect  effect="spiro" id="path-effect4288-8-7" is_visible="true"></inkscape:path-effect>
</defs>

<path id="path6736" transform="matrix(1 0 0 1 10 0)" inkscape:connector-curvature="0" inkscape:export-xdpi="96" inkscape:export-ydpi="96" class="pink" d="
	M586.3,136c-47.3,0-85.7,37.4-85.7,83.6c0,46.2,38.4,83.6,85.7,83.6c0,0,0,0,0,0c47.3,0,85.7-37.4,85.7-83.6c0,0,0,0,0,0
	C672,173.5,633.7,136,586.3,136z"/>
<ellipse id="path4552" inkscape:export-xdpi="96" inkscape:export-ydpi="96" class="pink" cx="219.3" cy="219.6" rx="86.2" ry="83.5"></ellipse>

<path id="path6276" inkscape:connector-curvature="0" inkscape:export-xdpi="96" inkscape:export-ydpi="96" class="st4" d="
	M300.3,301.7l-69.7-0.1v-81.9v-81.9l111.8-0.2c61.5-0.1,141.3-0.2,177.5-0.2l65.8,0v82.3v82.3l-107.8-0.1
	C418.5,301.8,338.6,301.7,300.3,301.7L300.3,301.7z"/>
<rect id="rect-pink-left" x="81.2" y="203.2" inkscape:export-xdpi="96" inkscape:export-ydpi="96" class="st5" width="54.5" height="32.3">
</rect>
<rect id="rect7266-48" x="273.5" y="84.1" inkscape:export-xdpi="96" inkscape:export-ydpi="96" class="st6" width="35.4" height="51.6">
</rect>
<rect id="rect7266-48-9" x="511" y="303.6" inkscape:export-xdpi="96" inkscape:export-ydpi="96" class="st7" width="39" height="56.4">
</rect>

<rect id="rect7266-8" x="670.6" y="203.3" inkscape:export-xdpi="96" inkscape:export-ydpi="96" class="st5" width="62.9" height="32.2">
</rect>
<rect id="rect8490" x="274.6" y="133.1" class="st10" width="33.3" height="4.5"/>
<rect id="rect8490-0" x="136.5" y="204.5" class="st11" width="13.5" height="29.7"/>
<rect id="rect8490-5" x="512" y="299.9" class="st10" width="37" height="10.4"/>
<rect id="rect8490-5-0" x="668.9" y="204.6" class="st11" width="3.4" height="29.5"/>
<text transform="matrix(1 0 0 1 264.8091 103.4043)" class="st12"> </text>
<path class="st4" d=""/>
<path id="path4487" inkscape:connector-curvature="0" class="st13" d="M290.5,121.7l-4.8-4.8l4.8,16.9l4.8-16.9L290.5,121.7z"/>
<path id="path4286" inkscape:connector-curvature="0" inkscape:original-d="m 373.70716,103.47996 0,55.25088" inkscape:path-effect="#path-effect4288" class="st13" d="
	M290.5,131.4"/>
<path class="st4" d=""/>
<path id="path4487-7" transform="matrix(1 0 0 1 -10 0)" inkscape:connector-curvature="0" class="st13" d="M108.1,218.9l4.8-4.8L96,218.9l16.9,4.8L108.1,218.9z"/>
<path id="path4286-6" inkscape:connector-curvature="0" inkscape:original-d="m 185.36497,271.30794 -58.70406,0" inkscape:path-effect="#path-effect4288-8" sodipodi:nodetypes="cc" class="st13" d="
	M98.4,218.9"/>
<path class="st4" d=""/>
<path id="path4487-4" inkscape:connector-curvature="0" class="st13" d="M529.5,338.8l-4.8-4.8l4.8,16.9l4.8-16.9L529.5,338.8z"/>
<path id="path4286-2" inkscape:connector-curvature="0" inkscape:original-d="m 681.24862,382.73259 0,55.25088" inkscape:path-effect="#path-effect4288-3" class="st13" d="
	M529.5,348.4"/>
<path class="st4" d=""/>
<path id="path4487-7-5" inkscape:connector-curvature="0" class="st13" d="M691.5,218.5l4.8-4.8l-16.9,4.8l16.9,4.8L691.5,218.5z"/>
<path id="path4286-6-2" inkscape:connector-curvature="0" inkscape:original-d="m 935.98143,270.86505 -58.70406,0" inkscape:path-effect="#path-effect4288-8-7" sodipodi:nodetypes="cc" class="st13" d="
	M681.9,218.5"/>


<line class="arrow" x1="96.1" y1="218.9" x2="132.7" y2="218.9"/><!-- left arrow line-->
<line class="arrow" x1="689" y1="218.5" x2="725.6" y2="218.5"/>
<line class="arrow" x1="290.9" y1="128.4" x2="290.9" y2="91.8"/>
<line class="arrow" x1="529.5" y1="342.1" x2="529.5" y2="305.5"/>

<rect id="center-rect" x="223" y="136" inkscape:export-xdpi="96" inkscape:export-ydpi="96" class="title" width="378.2" height="167.3"></rect>
<text x="50%" y="50%" text-anchor="middle" id="asset_name" class="title-text">HX</text>


<circle id="path4295-9-1-4" class="st21" cx="532.6" cy="401.4" r="36.3"/>
<a id="ShellOutlet">
	<text x="532.6" y="401.4" class="st20" text-anchor="middle">N / A</text>
	<text x="532.6" y="422.7" class="st15" text-anchor="middle">°F</text>
</a>

<circle id="path4295-9-1" class="st18" cx="35.1" cy="217.1" r="36.3"/>
<a id="TubeOutlet">
	<text x="35.1" y="217.1" text-anchor="middle" class="st20">N / A</text>
	<text x="35.1" y="237.27" text-anchor="middle" class="st15">°F</text>
</a>

<circle id="path4295-9-1-4-7" class="st18" cx="780.7" cy="217.1" r="36.3"/>
<a id="TubeInlet">
	<text x="780.7" y="217.1" text-anchor="middle" class="st20">N / A</text>
	<text x="780.7" y="237.27"  text-anchor="middle" class="st15">°F</text>
</a>

<circle id="path4295" class="st21" cx="290.9" cy="43.3" r="36.3"/>
<a id="ShellInlet">
	<text x="290.9" y="43.3"  text-anchor="middle" class="st20">N / A</text>
	<text x="290.9" y="62.70"  text-anchor="middle" class="st15">°F</text>
</a>

<rect id="Rect_TubeInlet_flow" x="597.5" y="210.4" class="st26" width="67.5" height="24.7"/>
<a id="TubeInlet_flow">
	<text transform="matrix(1 0 0 1 605 226)" class="st24 st16"></text>
</a>

<rect id="Rect_ShellOutlet_flow" x="492.4" y="269.5" class="st26" width="81.8" height="26.7"/>
<a id="ShellOutlet_flow">
	<text transform="matrix(1 0 0 1 503 287)" class="st24 st16"></text>
</a>

<rect id="Rect_ShellInlet_flow" x="248.7" y="142.8" class="st26" width="87.4" height="26.7"/>
<a id="ShellInlet_flow">
	<text transform="matrix(1 0 0 1 258 161)" class="st24 st27"></text>
</a>

<rect id="Rect_TubeOutlet_flow" x="139.4" y="207.4" class="st26" width="79.8" height="24.7"/>
<a id="TubeOutlet_flow">
	<text transform="matrix(1 0 0 1 148 225)" class="st24 st16"></text>
</a>
</svg>
